# Blender 4.0.0
# www.blender.org
mtllib camara.mtl
o Cube
v 0.062997 0.093017 -0.093017
v 0.062997 -0.093017 -0.093017
v 0.062997 0.093017 0.093017
v 0.062997 -0.093017 0.093017
v -0.062997 0.062997 -0.062997
v -0.062997 -0.062997 -0.062997
v -0.062997 0.062997 0.062997
v -0.062997 -0.062997 0.062997
v -0.062997 -0.062997 -0.020999
v -0.062997 -0.062997 0.020999
v 0.062997 0.093017 -0.031006
v 0.062997 0.093017 0.031006
v -0.062997 0.062997 0.020999
v -0.062997 0.062997 -0.020999
v 0.062997 -0.093017 0.031006
v 0.062997 -0.093017 -0.031006
v 0.062997 0.031006 -0.093017
v 0.062997 -0.031006 -0.093017
v -0.062997 -0.020999 0.062997
v -0.062997 0.020999 0.062997
v 0.062997 0.031006 0.093017
v 0.062997 -0.031006 0.093017
v -0.062997 0.020999 -0.062997
v -0.062997 -0.020999 -0.062997
v 0.062997 0.055442 -0.055442
v 0.062997 -0.055442 -0.055442
v 0.062997 0.055442 0.055442
v 0.062997 -0.055442 0.055442
v -0.062997 0.020999 0.020999
v -0.062997 -0.020999 0.020999
v -0.062997 0.020999 -0.020999
v -0.062997 -0.020999 -0.020999
v 0.047027 0.022378 -0.022378
v 0.047027 -0.022378 -0.022378
v 0.047027 0.022378 0.022378
v 0.047027 -0.022378 0.022378
vn -0.2318 0.9728 -0.0000
vn -0.2318 -0.0000 0.9728
vn -1.0000 -0.0000 -0.0000
vn -0.2318 -0.9728 -0.0000
vn 1.0000 -0.0000 -0.0000
vn -0.2318 -0.0000 -0.9728
vn 0.9005 -0.4349 -0.0000
vn 0.9005 -0.0000 -0.4349
vn 0.9005 -0.0000 0.4349
vn 0.9005 0.4349 -0.0000
vt 0.625000 0.666667
vt 0.875000 0.666667
vt 0.875000 0.750000
vt 0.625000 0.750000
vt 0.541667 0.750000
vt 0.625000 1.000000
vt 0.541667 1.000000
vt 0.541667 0.166667
vt 0.625000 0.166667
vt 0.625000 0.250000
vt 0.541667 0.250000
vt 0.125000 0.666667
vt 0.375000 0.666667
vt 0.375000 0.750000
vt 0.125000 0.750000
vt 0.541667 0.666667
vt 0.625000 0.500000
vt 0.541667 0.500000
vt 0.625000 0.583333
vt 0.541667 0.583333
vt 0.125000 0.500000
vt 0.375000 0.500000
vt 0.375000 0.583333
vt 0.125000 0.583333
vt 0.541667 0.000000
vt 0.625000 0.000000
vt 0.625000 0.083333
vt 0.541667 0.083333
vt 0.875000 0.500000
vt 0.875000 0.583333
vt 0.375000 0.083333
vt 0.458333 0.083333
vt 0.458333 0.166667
vt 0.375000 0.166667
vt 0.375000 0.000000
vt 0.458333 0.000000
vt 0.458333 0.583333
vt 0.458333 0.666667
vt 0.458333 0.500000
vt 0.375000 0.250000
vt 0.458333 0.250000
vt 0.458333 0.750000
vt 0.458333 1.000000
vt 0.375000 1.000000
s 0
usemtl Material
f 12/1/1 13/2/1 7/3/1 3/4/1
f 21/5/2 3/4/2 7/6/2 20/7/2
f 31/8/3 14/9/3 5/10/3 23/11/3
f 10/12/4 15/13/4 4/14/4 8/15/4
f 27/16/5 12/1/5 3/4/5 21/5/5
f 23/11/6 5/10/6 1/17/6 17/18/6
f 17/18/5 1/17/5 11/19/5 25/20/5
f 25/20/5 11/19/5 12/1/5 27/16/5
f 6/21/4 2/22/4 16/23/4 9/24/4
f 9/24/4 16/23/4 15/13/4 10/12/4
f 20/25/3 7/26/3 13/27/3 29/28/3
f 29/28/3 13/27/3 14/9/3 31/8/3
f 1/17/1 5/29/1 14/30/1 11/19/1
f 11/19/1 14/30/1 13/2/1 12/1/1
f 10/31/3 30/32/3 32/33/3 9/34/3
f 30/32/3 29/28/3 31/8/3 32/33/3
f 8/35/3 19/36/3 30/32/3 10/31/3
f 19/36/3 20/25/3 29/28/3 30/32/3
f 16/23/5 26/37/5 28/38/5 15/13/5
f 25/20/7 27/16/7 35/16/7 33/20/7
f 2/22/5 18/39/5 26/37/5 16/23/5
f 18/39/5 17/18/5 25/20/5 26/37/5
f 6/40/6 24/41/6 18/39/6 2/22/6
f 24/41/6 23/11/6 17/18/6 18/39/6
f 15/13/5 28/38/5 22/42/5 4/14/5
f 28/38/5 27/16/5 21/5/5 22/42/5
f 9/34/3 32/33/3 24/41/3 6/40/3
f 32/33/3 31/8/3 23/11/3 24/41/3
f 4/14/2 22/42/2 19/43/2 8/44/2
f 22/42/2 21/5/2 20/7/2 19/43/2
f 34/37/5 33/20/5 35/16/5 36/38/5
f 27/16/8 28/38/8 36/38/8 35/16/8
f 26/37/9 25/20/9 33/20/9 34/37/9
f 28/38/10 26/37/10 34/37/10 36/38/10
