# Blender 4.0.0
# www.blender.org
mtllib cerdas.mtl
o Cube
v -0.008133 0.036432 -0.372838
v 0.008133 0.036432 -0.372838
v -0.008133 0.036432 -0.359982
v 0.008133 0.036432 -0.359982
v -0.008133 0.036432 -0.334269
v 0.008133 0.036432 -0.334269
v -0.008133 0.036432 -0.321412
v 0.008133 0.036432 -0.321412
v -0.008133 0.036432 -0.295699
v 0.008133 0.036432 -0.295699
v -0.008133 0.036432 -0.282843
v 0.008133 0.036432 -0.282843
v -0.008133 0.036432 -0.257130
v 0.008133 0.036432 -0.257130
v -0.008133 0.036432 -0.244273
v 0.008133 0.036432 -0.244273
v -0.008133 0.036432 -0.218560
v 0.008133 0.036432 -0.218560
v -0.008133 0.036432 -0.205704
v 0.008133 0.036432 -0.205704
v -0.008133 0.036432 -0.179991
v 0.008133 0.036432 -0.179991
v -0.008133 0.036432 -0.167134
v 0.008133 0.036432 -0.167134
v -0.008133 0.036432 -0.141421
v 0.008133 0.036432 -0.141421
v -0.008133 0.036432 -0.128565
v 0.008133 0.036432 -0.128565
v -0.008133 0.036432 -0.102852
v 0.008133 0.036432 -0.102852
v -0.008133 0.036432 -0.089995
v 0.008133 0.036432 -0.089995
v -0.008133 0.036432 -0.064282
v 0.008133 0.036432 -0.064282
v -0.008133 0.036432 -0.051426
v 0.008133 0.036432 -0.051426
v -0.008133 0.036432 -0.025713
v 0.008133 0.036432 -0.025713
v -0.008133 0.036432 -0.012856
v 0.008133 0.036432 -0.012856
v -0.008133 0.036432 0.012856
v 0.008133 0.036432 0.012856
v -0.008133 0.036432 0.025713
v 0.008133 0.036432 0.025713
v -0.008133 0.036432 0.051426
v 0.008133 0.036432 0.051426
v -0.008133 0.036432 0.064282
v 0.008133 0.036432 0.064282
v -0.008133 0.036432 0.089995
v 0.008133 0.036432 0.089995
v -0.008133 0.036432 0.102852
v 0.008133 0.036432 0.102852
v -0.008133 0.036432 0.128565
v 0.008133 0.036432 0.128565
v -0.008133 0.036432 0.141421
v 0.008133 0.036432 0.141421
v -0.008133 0.036432 0.167134
v 0.008133 0.036432 0.167134
v -0.008133 0.036432 0.179991
v 0.008133 0.036432 0.179991
v -0.008133 0.036432 0.205704
v 0.008133 0.036432 0.205704
v -0.008133 0.036432 0.218560
v 0.008133 0.036432 0.218560
v -0.008133 0.036432 0.244273
v 0.008133 0.036432 0.244273
v -0.008133 0.036432 0.257130
v 0.008133 0.036432 0.257130
v -0.008133 0.036432 0.282843
v 0.008133 0.036432 0.282843
v -0.008133 0.036432 0.295699
v 0.008133 0.036432 0.295699
v -0.008133 0.036432 0.321412
v 0.008133 0.036432 0.321412
v -0.008133 0.036432 0.334269
v 0.008133 0.036432 0.334269
v -0.008133 0.036432 0.359982
v 0.008133 0.036432 0.359982
v -0.008133 0.036432 0.372838
v 0.008133 0.036432 0.372838
v 0.008133 -0.036432 -0.372838
v -0.008133 -0.036432 -0.372838
v 0.008133 -0.036432 -0.359982
v -0.008133 -0.036432 -0.359982
v 0.008133 -0.036432 -0.334269
v -0.008133 -0.036432 -0.334269
v 0.008133 -0.036432 -0.321412
v -0.008133 -0.036432 -0.321412
v 0.008133 -0.036432 -0.295699
v -0.008133 -0.036432 -0.295699
v 0.008133 -0.036432 -0.282843
v -0.008133 -0.036432 -0.282843
v 0.008133 -0.036432 -0.257130
v -0.008133 -0.036432 -0.257130
v 0.008133 -0.036432 -0.244273
v -0.008133 -0.036432 -0.244273
v 0.008133 -0.036432 -0.218560
v -0.008133 -0.036432 -0.218560
v 0.008133 -0.036432 -0.205704
v -0.008133 -0.036432 -0.205704
v 0.008133 -0.036432 -0.179991
v -0.008133 -0.036432 -0.179991
v 0.008133 -0.036432 -0.167134
v -0.008133 -0.036432 -0.167134
v 0.008133 -0.036432 -0.141421
v -0.008133 -0.036432 -0.141421
v 0.008133 -0.036432 -0.128565
v -0.008133 -0.036432 -0.128565
v 0.008133 -0.036432 -0.102852
v -0.008133 -0.036432 -0.102852
v 0.008133 -0.036432 -0.089995
v -0.008133 -0.036432 -0.089995
v 0.008133 -0.036432 -0.064282
v -0.008133 -0.036432 -0.064282
v 0.008133 -0.036432 -0.051426
v -0.008133 -0.036432 -0.051426
v 0.008133 -0.036432 -0.025713
v -0.008133 -0.036432 -0.025713
v 0.008133 -0.036432 -0.012856
v -0.008133 -0.036432 -0.012856
v 0.008133 -0.036432 0.012856
v -0.008133 -0.036432 0.012856
v 0.008133 -0.036432 0.025713
v -0.008133 -0.036432 0.025713
v 0.008133 -0.036432 0.051426
v -0.008133 -0.036432 0.051426
v 0.008133 -0.036432 0.064282
v -0.008133 -0.036432 0.064282
v 0.008133 -0.036432 0.089995
v -0.008133 -0.036432 0.089995
v 0.008133 -0.036432 0.102852
v -0.008133 -0.036432 0.102852
v 0.008133 -0.036432 0.128565
v -0.008133 -0.036432 0.128565
v 0.008133 -0.036432 0.141421
v -0.008133 -0.036432 0.141421
v 0.008133 -0.036432 0.167134
v -0.008133 -0.036432 0.167134
v 0.008133 -0.036432 0.179991
v -0.008133 -0.036432 0.179991
v 0.008133 -0.036432 0.205704
v -0.008133 -0.036432 0.205704
v 0.008133 -0.036432 0.218560
v -0.008133 -0.036432 0.218560
v 0.008133 -0.036432 0.244273
v -0.008133 -0.036432 0.244273
v 0.008133 -0.036432 0.257130
v -0.008133 -0.036432 0.257130
v 0.008133 -0.036432 0.282843
v -0.008133 -0.036432 0.282843
v 0.008133 -0.036432 0.295699
v -0.008133 -0.036432 0.295699
v 0.008133 -0.036432 0.321412
v -0.008133 -0.036432 0.321412
v 0.008133 -0.036432 0.334269
v -0.008133 -0.036432 0.334269
v 0.008133 -0.036432 0.359982
v -0.008133 -0.036432 0.359982
v 0.008133 -0.036432 0.372838
v -0.008133 -0.036432 0.372838
v -0.008133 0.336783 -0.372838
v 0.008133 0.336783 -0.372838
v -0.008133 0.336783 -0.359982
v 0.008133 0.336783 -0.359982
v -0.008133 0.336783 -0.334269
v 0.008133 0.336783 -0.334269
v -0.008133 0.336783 -0.321412
v 0.008133 0.336783 -0.321412
v -0.008133 0.336783 -0.295699
v 0.008133 0.336783 -0.295699
v -0.008133 0.336783 -0.282843
v 0.008133 0.336783 -0.282843
v -0.008133 0.336783 -0.257130
v 0.008133 0.336783 -0.257130
v -0.008133 0.336783 -0.244273
v 0.008133 0.336783 -0.244273
v -0.008133 0.336783 -0.218560
v 0.008133 0.336783 -0.218560
v -0.008133 0.336783 -0.205704
v 0.008133 0.336783 -0.205704
v -0.008133 0.336783 -0.179991
v 0.008133 0.336783 -0.179991
v -0.008133 0.336783 -0.167134
v 0.008133 0.336783 -0.167134
v -0.008133 0.336783 -0.141421
v 0.008133 0.336783 -0.141421
v -0.008133 0.336783 -0.128565
v 0.008133 0.336783 -0.128565
v -0.008133 0.336783 -0.102852
v 0.008133 0.336783 -0.102852
v -0.008133 0.336783 -0.089995
v 0.008133 0.336783 -0.089995
v -0.008133 0.336783 -0.064282
v 0.008133 0.336783 -0.064282
v -0.008133 0.336783 -0.051426
v 0.008133 0.336783 -0.051426
v -0.008133 0.336783 -0.025713
v 0.008133 0.336783 -0.025713
v -0.008133 0.336783 -0.012856
v 0.008133 0.336783 -0.012856
v -0.008133 0.336783 0.012856
v 0.008133 0.336783 0.012856
v -0.008133 0.336783 0.025713
v 0.008133 0.336783 0.025713
v -0.008133 0.336783 0.051426
v 0.008133 0.336783 0.051426
v -0.008133 0.336783 0.064282
v 0.008133 0.336783 0.064282
v -0.008133 0.336783 0.089995
v 0.008133 0.336783 0.089995
v -0.008133 0.336783 0.102852
v 0.008133 0.336783 0.102852
v -0.008133 0.336783 0.128565
v 0.008133 0.336783 0.128565
v -0.008133 0.336783 0.141421
v 0.008133 0.336783 0.141421
v -0.008133 0.336783 0.167134
v 0.008133 0.336783 0.167134
v -0.008133 0.336783 0.179991
v 0.008133 0.336783 0.179991
v -0.008133 0.336783 0.205704
v 0.008133 0.336783 0.205704
v -0.008133 0.336783 0.218560
v 0.008133 0.336783 0.218560
v -0.008133 0.336783 0.244273
v 0.008133 0.336783 0.244273
v -0.008133 0.336783 0.257130
v 0.008133 0.336783 0.257130
v -0.008133 0.336783 0.282843
v 0.008133 0.336783 0.282843
v -0.008133 0.336783 0.295699
v 0.008133 0.336783 0.295699
v -0.008133 0.336783 0.321412
v 0.008133 0.336783 0.321412
v -0.008133 0.336783 0.334269
v 0.008133 0.336783 0.334269
v -0.008133 0.336783 0.359982
v 0.008133 0.336783 0.359982
v -0.008133 0.336783 0.372838
v 0.008133 0.336783 0.372838
v 0.008133 -0.336758 -0.372838
v -0.008133 -0.336758 -0.372838
v 0.008133 -0.336758 -0.359982
v -0.008133 -0.336758 -0.359982
v 0.008133 -0.336758 -0.334269
v -0.008133 -0.336758 -0.334269
v 0.008133 -0.336758 -0.321412
v -0.008133 -0.336758 -0.321412
v 0.008133 -0.336758 -0.295699
v -0.008133 -0.336758 -0.295699
v 0.008133 -0.336758 -0.282843
v -0.008133 -0.336758 -0.282843
v 0.008133 -0.336758 -0.257130
v -0.008133 -0.336758 -0.257130
v 0.008133 -0.336758 -0.244273
v -0.008133 -0.336758 -0.244273
v 0.008133 -0.336758 -0.218560
v -0.008133 -0.336758 -0.218560
v 0.008133 -0.336758 -0.205704
v -0.008133 -0.336758 -0.205704
v 0.008133 -0.336758 -0.179991
v -0.008133 -0.336758 -0.179991
v 0.008133 -0.336758 -0.167134
v -0.008133 -0.336758 -0.167134
v 0.008133 -0.336758 -0.141421
v -0.008133 -0.336758 -0.141421
v 0.008133 -0.336758 -0.128565
v -0.008133 -0.336758 -0.128565
v 0.008133 -0.336758 -0.102852
v -0.008133 -0.336758 -0.102852
v 0.008133 -0.336758 -0.089995
v -0.008133 -0.336758 -0.089995
v 0.008133 -0.336758 -0.064282
v -0.008133 -0.336758 -0.064282
v 0.008133 -0.336758 -0.051426
v -0.008133 -0.336758 -0.051426
v 0.008133 -0.336758 -0.025713
v -0.008133 -0.336758 -0.025713
v 0.008133 -0.336758 -0.012856
v -0.008133 -0.336758 -0.012856
v 0.008133 -0.336758 0.012856
v -0.008133 -0.336758 0.012856
v 0.008133 -0.336758 0.025713
v -0.008133 -0.336758 0.025713
v 0.008133 -0.336758 0.051426
v -0.008133 -0.336758 0.051426
v 0.008133 -0.336758 0.064282
v -0.008133 -0.336758 0.064282
v 0.008133 -0.336758 0.089995
v -0.008133 -0.336758 0.089995
v 0.008133 -0.336758 0.102852
v -0.008133 -0.336758 0.102852
v 0.008133 -0.336758 0.128565
v -0.008133 -0.336758 0.128565
v 0.008133 -0.336758 0.141421
v -0.008133 -0.336758 0.141421
v 0.008133 -0.336758 0.167134
v -0.008133 -0.336758 0.167134
v 0.008133 -0.336758 0.179991
v -0.008133 -0.336758 0.179991
v 0.008133 -0.336758 0.205704
v -0.008133 -0.336758 0.205704
v 0.008133 -0.336758 0.218560
v -0.008133 -0.336758 0.218560
v 0.008133 -0.336758 0.244273
v -0.008133 -0.336758 0.244273
v 0.008133 -0.336758 0.257130
v -0.008133 -0.336758 0.257130
v 0.008133 -0.336758 0.282843
v -0.008133 -0.336758 0.282843
v 0.008133 -0.336758 0.295699
v -0.008133 -0.336758 0.295699
v 0.008133 -0.336758 0.321412
v -0.008133 -0.336758 0.321412
v 0.008133 -0.336758 0.334269
v -0.008133 -0.336758 0.334269
v 0.008133 -0.336758 0.359982
v -0.008133 -0.336758 0.359982
v 0.008133 -0.336758 0.372838
v -0.008133 -0.336758 0.372838
vn 1.0000 -0.0000 -0.0000
vn -0.0000 -0.0000 -1.0000
vn -0.0000 -0.0000 1.0000
vn -1.0000 -0.0000 -0.0000
vn -0.0000 -1.0000 -0.0000
vn -0.0000 1.0000 -0.0000
vt 0.291667 0.541667
vt 0.291667 0.545833
vt 0.708333 0.566667
vt 0.791667 0.566667
vt 0.291667 0.633333
vt 0.208333 0.633333
vt 0.208333 0.545833
vt 0.208333 0.541667
vt 0.791667 0.558333
vt 0.708333 0.558333
vt 0.208333 0.629167
vt 0.291667 0.629167
vt 0.291667 0.554167
vt 0.291667 0.558333
vt 0.708333 0.554167
vt 0.791667 0.554167
vt 0.291667 0.620833
vt 0.208333 0.620833
vt 0.208333 0.558333
vt 0.208333 0.554167
vt 0.791667 0.545833
vt 0.708333 0.545833
vt 0.208333 0.616667
vt 0.291667 0.616667
vt 0.291667 0.566667
vt 0.291667 0.570833
vt 0.708333 0.541667
vt 0.791667 0.541667
vt 0.291667 0.608333
vt 0.208333 0.608333
vt 0.208333 0.570833
vt 0.208333 0.566667
vt 0.791667 0.533333
vt 0.708333 0.533333
vt 0.791667 0.504167
vt 0.791667 0.508333
vt 0.208333 0.604167
vt 0.291667 0.604167
vt 0.291667 0.579167
vt 0.291667 0.583333
vt 0.708333 0.529167
vt 0.791667 0.529167
vt 0.708333 0.508333
vt 0.708333 0.504167
vt 0.291667 0.595833
vt 0.208333 0.595833
vt 0.208333 0.583333
vt 0.208333 0.579167
vt 0.791667 0.520833
vt 0.708333 0.520833
vt 0.791667 0.516667
vt 0.208333 0.591667
vt 0.291667 0.591667
vt 0.708333 0.516667
vt 0.208333 0.741667
vt 0.291667 0.741667
vt 0.291667 0.745833
vt 0.208333 0.745833
vt 0.208333 0.729167
vt 0.291667 0.729167
vt 0.291667 0.733333
vt 0.208333 0.733333
vt 0.208333 0.716667
vt 0.291667 0.716667
vt 0.291667 0.720833
vt 0.208333 0.720833
vt 0.208333 0.704167
vt 0.291667 0.704167
vt 0.291667 0.708333
vt 0.208333 0.708333
vt 0.208333 0.691667
vt 0.291667 0.691667
vt 0.291667 0.695833
vt 0.208333 0.695833
vt 0.208333 0.679167
vt 0.291667 0.679167
vt 0.291667 0.683333
vt 0.208333 0.683333
vt 0.208333 0.666667
vt 0.291667 0.666667
vt 0.291667 0.670833
vt 0.208333 0.670833
vt 0.208333 0.654167
vt 0.291667 0.654167
vt 0.291667 0.658333
vt 0.208333 0.658333
vt 0.208333 0.641667
vt 0.291667 0.641667
vt 0.291667 0.645833
vt 0.208333 0.645833
vt 0.208333 0.529167
vt 0.291667 0.529167
vt 0.291667 0.533333
vt 0.208333 0.533333
vt 0.208333 0.516667
vt 0.291667 0.516667
vt 0.291667 0.520833
vt 0.208333 0.520833
vt 0.208333 0.504167
vt 0.291667 0.504167
vt 0.291667 0.508333
vt 0.208333 0.508333
vt 0.708333 0.741667
vt 0.791667 0.741667
vt 0.791667 0.745833
vt 0.708333 0.745833
vt 0.708333 0.729167
vt 0.791667 0.729167
vt 0.791667 0.733333
vt 0.708333 0.733333
vt 0.708333 0.716667
vt 0.791667 0.716667
vt 0.791667 0.720833
vt 0.708333 0.720833
vt 0.708333 0.704167
vt 0.791667 0.704167
vt 0.791667 0.708333
vt 0.708333 0.708333
vt 0.708333 0.691667
vt 0.791667 0.691667
vt 0.791667 0.695833
vt 0.708333 0.695833
vt 0.708333 0.679167
vt 0.791667 0.679167
vt 0.791667 0.683333
vt 0.708333 0.683333
vt 0.708333 0.666667
vt 0.791667 0.666667
vt 0.791667 0.670833
vt 0.708333 0.670833
vt 0.708333 0.654167
vt 0.791667 0.654167
vt 0.791667 0.658333
vt 0.708333 0.658333
vt 0.708333 0.641667
vt 0.791667 0.641667
vt 0.791667 0.645833
vt 0.708333 0.645833
vt 0.708333 0.629167
vt 0.791667 0.629167
vt 0.791667 0.633333
vt 0.708333 0.633333
vt 0.708333 0.616667
vt 0.791667 0.616667
vt 0.791667 0.620833
vt 0.708333 0.620833
vt 0.708333 0.604167
vt 0.791667 0.604167
vt 0.791667 0.608333
vt 0.708333 0.608333
vt 0.708333 0.591667
vt 0.791667 0.591667
vt 0.791667 0.595833
vt 0.708333 0.595833
vt 0.708333 0.579167
vt 0.791667 0.579167
vt 0.791667 0.583333
vt 0.708333 0.583333
vt 0.791667 0.570833
vt 0.708333 0.570833
s 0
f 93/1/1 95/2/1 255/2/1 253/1/1
f 22/3/2 21/4/2 181/4/2 182/3/2
f 123/5/3 124/6/3 284/6/3 283/5/3
f 96/7/4 94/8/4 254/8/4 256/7/4
f 19/9/3 20/10/3 180/10/3 179/9/3
f 122/11/2 121/12/2 281/12/2 282/11/2
f 97/13/1 99/14/1 259/14/1 257/13/1
f 18/15/2 17/16/2 177/16/2 178/15/2
f 119/17/3 120/18/3 280/18/3 279/17/3
f 100/19/4 98/20/4 258/20/4 260/19/4
f 15/21/3 16/22/3 176/22/3 175/21/3
f 118/23/2 117/24/2 277/24/2 278/23/2
f 101/25/1 103/26/1 263/26/1 261/25/1
f 14/27/2 13/28/2 173/28/2 174/27/2
f 115/29/3 116/30/3 276/30/3 275/29/3
f 104/31/4 102/32/4 262/32/4 264/31/4
f 11/33/3 12/34/3 172/34/3 171/33/3
f 1/35/4 3/36/4 163/36/4 161/35/4
f 114/37/2 113/38/2 273/38/2 274/37/2
f 105/39/1 107/40/1 267/40/1 265/39/1
f 10/41/2 9/42/2 169/42/2 170/41/2
f 4/43/1 2/44/1 162/44/1 164/43/1
f 111/45/3 112/46/3 272/46/3 271/45/3
f 108/47/4 106/48/4 266/48/4 268/47/4
f 7/49/3 8/50/3 168/50/3 167/49/3
f 5/51/4 7/49/4 167/49/4 165/51/4
f 110/52/2 109/53/2 269/53/2 270/52/2
f 109/53/1 111/45/1 271/45/1 269/53/1
f 6/54/2 5/51/2 165/51/2 166/54/2
f 8/50/1 6/54/1 166/54/1 168/50/1
f 107/40/3 108/47/3 268/47/3 267/40/3
f 112/46/4 110/52/4 270/52/4 272/46/4
f 3/36/3 4/43/3 164/43/3 163/36/3
f 9/42/4 11/33/4 171/33/4 169/42/4
f 106/48/2 105/39/2 265/39/2 266/48/2
f 113/38/1 115/29/1 275/29/1 273/38/1
f 2/44/2 1/35/2 161/35/2 162/44/2
f 12/34/1 10/41/1 170/41/1 172/34/1
f 103/26/3 104/31/3 264/31/3 263/26/3
f 116/30/4 114/37/4 274/37/4 276/30/4
f 318/55/5 317/56/5 319/57/5 320/58/5
f 314/59/5 313/60/5 315/61/5 316/62/5
f 310/63/5 309/64/5 311/65/5 312/66/5
f 306/67/5 305/68/5 307/69/5 308/70/5
f 302/71/5 301/72/5 303/73/5 304/74/5
f 298/75/5 297/76/5 299/77/5 300/78/5
f 294/79/5 293/80/5 295/81/5 296/82/5
f 290/83/5 289/84/5 291/85/5 292/86/5
f 286/87/5 285/88/5 287/89/5 288/90/5
f 282/11/5 281/12/5 283/5/5 284/6/5
f 278/23/5 277/24/5 279/17/5 280/18/5
f 274/37/5 273/38/5 275/29/5 276/30/5
f 270/52/5 269/53/5 271/45/5 272/46/5
f 266/48/5 265/39/5 267/40/5 268/47/5
f 262/32/5 261/25/5 263/26/5 264/31/5
f 258/20/5 257/13/5 259/14/5 260/19/5
f 254/8/5 253/1/5 255/2/5 256/7/5
f 250/91/5 249/92/5 251/93/5 252/94/5
f 246/95/5 245/96/5 247/97/5 248/98/5
f 242/99/5 241/100/5 243/101/5 244/102/5
f 238/103/6 237/104/6 239/105/6 240/106/6
f 234/107/6 233/108/6 235/109/6 236/110/6
f 230/111/6 229/112/6 231/113/6 232/114/6
f 226/115/6 225/116/6 227/117/6 228/118/6
f 222/119/6 221/120/6 223/121/6 224/122/6
f 218/123/6 217/124/6 219/125/6 220/126/6
f 214/127/6 213/128/6 215/129/6 216/130/6
f 210/131/6 209/132/6 211/133/6 212/134/6
f 206/135/6 205/136/6 207/137/6 208/138/6
f 202/139/6 201/140/6 203/141/6 204/142/6
f 198/143/6 197/144/6 199/145/6 200/146/6
f 194/147/6 193/148/6 195/149/6 196/150/6
f 190/151/6 189/152/6 191/153/6 192/154/6
f 186/155/6 185/156/6 187/157/6 188/158/6
f 182/3/6 181/4/6 183/159/6 184/160/6
f 178/15/6 177/16/6 179/9/6 180/10/6
f 174/27/6 173/28/6 175/21/6 176/22/6
f 170/41/6 169/42/6 171/33/6 172/34/6
f 166/54/6 165/51/6 167/49/6 168/50/6
f 162/44/6 161/35/6 163/36/6 164/43/6
f 126/87/2 125/88/2 285/88/2 286/87/2
f 23/159/3 24/160/3 184/160/3 183/159/3
f 92/94/4 90/91/4 250/91/4 252/94/4
f 127/89/3 128/90/3 288/90/3 287/89/3
f 26/155/2 25/156/2 185/156/2 186/155/2
f 89/92/1 91/93/1 251/93/1 249/92/1
f 130/83/2 129/84/2 289/84/2 290/83/2
f 27/157/3 28/158/3 188/158/3 187/157/3
f 88/98/4 86/95/4 246/95/4 248/98/4
f 131/85/3 132/86/3 292/86/3 291/85/3
f 30/151/2 29/152/2 189/152/2 190/151/2
f 85/96/1 87/97/1 247/97/1 245/96/1
f 134/79/2 133/80/2 293/80/2 294/79/2
f 31/153/3 32/154/3 192/154/3 191/153/3
f 84/102/4 82/99/4 242/99/4 244/102/4
f 135/81/3 136/82/3 296/82/3 295/81/3
f 34/147/2 33/148/2 193/148/2 194/147/2
f 81/100/1 83/101/1 243/101/1 241/100/1
f 138/75/2 137/76/2 297/76/2 298/75/2
f 35/149/3 36/150/3 196/150/3 195/149/3
f 80/106/1 78/103/1 238/103/1 240/106/1
f 139/77/3 140/78/3 300/78/3 299/77/3
f 38/143/2 37/144/2 197/144/2 198/143/2
f 77/104/4 79/105/4 239/105/4 237/104/4
f 142/71/2 141/72/2 301/72/2 302/71/2
f 39/145/3 40/146/3 200/146/3 199/145/3
f 76/110/1 74/107/1 234/107/1 236/110/1
f 143/73/3 144/74/3 304/74/3 303/73/3
f 42/139/2 41/140/2 201/140/2 202/139/2
f 73/108/4 75/109/4 235/109/4 233/108/4
f 146/67/2 145/68/2 305/68/2 306/67/2
f 43/141/3 44/142/3 204/142/3 203/141/3
f 72/114/1 70/111/1 230/111/1 232/114/1
f 147/69/3 148/70/3 308/70/3 307/69/3
f 46/135/2 45/136/2 205/136/2 206/135/2
f 69/112/4 71/113/4 231/113/4 229/112/4
f 150/63/2 149/64/2 309/64/2 310/63/2
f 47/137/3 48/138/3 208/138/3 207/137/3
f 68/118/1 66/115/1 226/115/1 228/118/1
f 151/65/3 152/66/3 312/66/3 311/65/3
f 50/131/2 49/132/2 209/132/2 210/131/2
f 65/116/4 67/117/4 227/117/4 225/116/4
f 154/59/2 153/60/2 313/60/2 314/59/2
f 51/133/3 52/134/3 212/134/3 211/133/3
f 64/122/1 62/119/1 222/119/1 224/122/1
f 155/61/3 156/62/3 316/62/3 315/61/3
f 54/127/2 53/128/2 213/128/2 214/127/2
f 61/120/4 63/121/4 223/121/4 221/120/4
f 158/55/2 157/56/2 317/56/2 318/55/2
f 55/129/3 56/130/3 216/130/3 215/129/3
f 60/126/1 58/123/1 218/123/1 220/126/1
f 159/57/3 160/58/3 320/58/3 319/57/3
f 58/123/2 57/124/2 217/124/2 218/123/2
f 57/124/4 59/125/4 219/125/4 217/124/4
f 160/58/4 158/55/4 318/55/4 320/58/4
f 59/125/3 60/126/3 220/126/3 219/125/3
f 56/130/1 54/127/1 214/127/1 216/130/1
f 157/56/1 159/57/1 319/57/1 317/56/1
f 62/119/2 61/120/2 221/120/2 222/119/2
f 53/128/4 55/129/4 215/129/4 213/128/4
f 156/62/4 154/59/4 314/59/4 316/62/4
f 63/121/3 64/122/3 224/122/3 223/121/3
f 52/134/1 50/131/1 210/131/1 212/134/1
f 153/60/1 155/61/1 315/61/1 313/60/1
f 66/115/2 65/116/2 225/116/2 226/115/2
f 49/132/4 51/133/4 211/133/4 209/132/4
f 152/66/4 150/63/4 310/63/4 312/66/4
f 67/117/3 68/118/3 228/118/3 227/117/3
f 48/138/1 46/135/1 206/135/1 208/138/1
f 149/64/1 151/65/1 311/65/1 309/64/1
f 70/111/2 69/112/2 229/112/2 230/111/2
f 45/136/4 47/137/4 207/137/4 205/136/4
f 148/70/4 146/67/4 306/67/4 308/70/4
f 71/113/3 72/114/3 232/114/3 231/113/3
f 44/142/1 42/139/1 202/139/1 204/142/1
f 145/68/1 147/69/1 307/69/1 305/68/1
f 74/107/2 73/108/2 233/108/2 234/107/2
f 41/140/4 43/141/4 203/141/4 201/140/4
f 144/74/4 142/71/4 302/71/4 304/74/4
f 75/109/3 76/110/3 236/110/3 235/109/3
f 40/146/1 38/143/1 198/143/1 200/146/1
f 141/72/1 143/73/1 303/73/1 301/72/1
f 78/103/2 77/104/2 237/104/2 238/103/2
f 37/144/4 39/145/4 199/145/4 197/144/4
f 140/78/4 138/75/4 298/75/4 300/78/4
f 79/105/3 80/106/3 240/106/3 239/105/3
f 36/150/1 34/147/1 194/147/1 196/150/1
f 137/76/1 139/77/1 299/77/1 297/76/1
f 82/99/2 81/100/2 241/100/2 242/99/2
f 33/148/4 35/149/4 195/149/4 193/148/4
f 136/82/4 134/79/4 294/79/4 296/82/4
f 83/101/3 84/102/3 244/102/3 243/101/3
f 32/154/1 30/151/1 190/151/1 192/154/1
f 133/80/1 135/81/1 295/81/1 293/80/1
f 86/95/2 85/96/2 245/96/2 246/95/2
f 29/152/4 31/153/4 191/153/4 189/152/4
f 132/86/4 130/83/4 290/83/4 292/86/4
f 87/97/3 88/98/3 248/98/3 247/97/3
f 28/158/1 26/155/1 186/155/1 188/158/1
f 129/84/1 131/85/1 291/85/1 289/84/1
f 90/91/2 89/92/2 249/92/2 250/91/2
f 25/156/4 27/157/4 187/157/4 185/156/4
f 128/90/4 126/87/4 286/87/4 288/90/4
f 91/93/3 92/94/3 252/94/3 251/93/3
f 24/160/1 22/3/1 182/3/1 184/160/1
f 125/88/1 127/89/1 287/89/1 285/88/1
f 94/8/2 93/1/2 253/1/2 254/8/2
f 21/4/4 23/159/4 183/159/4 181/4/4
f 124/6/4 122/11/4 282/11/4 284/6/4
f 95/2/3 96/7/3 256/7/3 255/2/3
f 20/10/1 18/15/1 178/15/1 180/10/1
f 121/12/1 123/5/1 283/5/1 281/12/1
f 98/20/2 97/13/2 257/13/2 258/20/2
f 17/16/4 19/9/4 179/9/4 177/16/4
f 120/18/4 118/23/4 278/23/4 280/18/4
f 99/14/3 100/19/3 260/19/3 259/14/3
f 16/22/1 14/27/1 174/27/1 176/22/1
f 117/24/1 119/17/1 279/17/1 277/24/1
f 102/32/2 101/25/2 261/25/2 262/32/2
f 13/28/4 15/21/4 175/21/4 173/28/4
