# Blender 4.0.0
# www.blender.org
mtllib silla-marco.mtl
o Cube.002
v 0.641738 1.136938 0.970198
v -0.871165 0.977926 0.902589
v 0.721540 1.145326 0.961491
v 0.714534 1.211978 0.961491
v 0.641738 1.136938 0.902589
v 0.771563 1.150583 0.933980
v 0.764558 1.217236 0.933980
v 0.783722 1.151861 0.902483
v 0.776717 1.218514 0.902483
v -0.871165 0.977926 0.970198
v -0.878171 1.044578 0.970198
v -0.878171 1.044578 0.902589
v 0.634732 1.203591 0.970198
v 0.634732 1.203591 0.902589
v -0.950967 0.969538 0.961491
v -0.957973 1.036191 0.961491
v -1.000991 0.964280 0.933980
v -1.007996 1.030933 0.933980
v -1.013150 0.963003 0.902483
v -1.020155 1.029655 0.902483
v 0.634732 1.203591 -0.997891
v -0.878171 1.044579 -0.930282
v 0.714534 1.211979 -0.989184
v 0.721540 1.145326 -0.989184
v 0.634732 1.203591 -0.930282
v 0.764558 1.217236 -0.961674
v 0.771563 1.150584 -0.961674
v 0.776717 1.218514 -0.930176
v 0.783722 1.151862 -0.930176
v -0.878171 1.044579 -0.997891
v -0.871165 0.977926 -0.997891
v -0.871165 0.977926 -0.930282
v 0.641738 1.136939 -0.997891
v 0.641738 1.136939 -0.930282
v -0.957973 1.036191 -0.989184
v -0.950967 0.969539 -0.989184
v -1.007996 1.030933 -0.961674
v -1.000991 0.964281 -0.961674
v -1.020155 1.029655 -0.930176
v -1.013150 0.963003 -0.930176
v -0.190888 0.110527 1.015116
v -2.170978 2.264210 0.945117
v -0.134659 0.049369 1.006101
v -0.083577 0.096333 1.006101
v -0.190888 0.110528 0.945117
v -0.099412 0.011032 0.977618
v -0.048330 0.057996 0.977618
v -0.090844 0.001713 0.945007
v -0.039763 0.048677 0.945007
v -2.170978 2.264210 1.015117
v -2.119896 2.311174 1.015117
v -2.119896 2.311174 0.945117
v -0.139807 0.157492 1.015116
v -0.139807 0.157492 0.945117
v -2.227207 2.325369 1.006101
v -2.176126 2.372333 1.006101
v -2.262454 2.363706 0.977618
v -2.211373 2.410670 0.977618
v -2.271021 2.373024 0.945007
v -2.219940 2.419988 0.945007
v -0.139806 0.157492 -1.022571
v -2.119896 2.311174 -0.952571
v -0.083577 0.096333 -1.013556
v -0.134658 0.049369 -1.013556
v -0.139806 0.157492 -0.952571
v -0.048330 0.057996 -0.985073
v -0.099411 0.011032 -0.985073
v -0.039762 0.048678 -0.952461
v -0.090844 0.001714 -0.952461
v -2.119896 2.311174 -1.022571
v -2.170977 2.264210 -1.022571
v -2.170977 2.264210 -0.952571
v -0.190887 0.110528 -1.022571
v -0.190887 0.110528 -0.952571
v -2.176125 2.372334 -1.013556
v -2.227207 2.325369 -1.013556
v -2.211372 2.410670 -0.985073
v -2.262453 2.363706 -0.985073
v -2.219939 2.419989 -0.952461
v -2.271021 2.373024 -0.952461
v 0.533329 1.070923 0.913081
v -1.193804 0.076175 0.848512
v 0.599736 1.109170 0.904765
v 0.567791 1.164635 0.904765
v 0.533329 1.070923 0.848512
v 0.641362 1.133145 0.878492
v 0.609417 1.188610 0.878492
v 0.651480 1.138973 0.848411
v 0.619535 1.194437 0.848411
v -1.193804 0.076175 0.913081
v -1.225749 0.131639 0.913081
v -1.225749 0.131639 0.848512
v 0.501384 1.126387 0.913081
v 0.501384 1.126388 0.848512
v -1.260210 0.037928 0.904765
v -1.292155 0.093392 0.904765
v -1.301837 0.013953 0.878492
v -1.333781 0.069417 0.878492
v -1.311955 0.008125 0.848411
v -1.343900 0.063590 0.848411
v 0.501383 1.126390 -0.966509
v -1.225749 0.131641 -0.901940
v 0.567790 1.164636 -0.958194
v 0.599735 1.109172 -0.958194
v 0.501383 1.126389 -0.901940
v 0.609416 1.188612 -0.931920
v 0.641361 1.133147 -0.931920
v 0.619534 1.194439 -0.901839
v 0.651479 1.138975 -0.901839
v -1.225749 0.131641 -0.966509
v -1.193805 0.076177 -0.966509
v -1.193805 0.076177 -0.901940
v 0.533328 1.070925 -0.966509
v 0.533328 1.070925 -0.901940
v -1.292156 0.093394 -0.958194
v -1.260211 0.037930 -0.958194
v -1.333783 0.069419 -0.931920
v -1.301838 0.013955 -0.931920
v -1.343901 0.063591 -0.901839
v -1.311956 0.008127 -0.901839
vn 0.1045 -0.9945 -0.0000
vn -0.0000 -0.0000 -1.0000
vn -0.9945 -0.1045 -0.0000
vn -0.0000 -0.0000 1.0000
vn 0.1073 0.0113 0.9942
vn -0.1045 0.9945 -0.0000
vn 0.4772 0.0502 0.8773
vn 0.9271 0.0974 0.3619
vn 0.9945 0.1045 -0.0000
vn -0.1073 -0.0113 0.9942
vn -0.4772 -0.0502 0.8773
vn -0.9271 -0.0974 0.3619
vn 0.1073 0.0113 -0.9942
vn 0.4772 0.0502 -0.8773
vn -0.0007 -0.0001 1.0000
vn 0.9271 0.0974 -0.3619
vn -0.1073 -0.0113 -0.9942
vn -0.4772 -0.0502 -0.8773
vn -0.9271 -0.0974 -0.3619
vn 0.0007 0.0001 -1.0000
vn -0.7362 -0.6768 -0.0000
vn -0.6768 0.7362 -0.0000
vn 0.0730 -0.0794 0.9942
vn 0.7362 0.6768 -0.0000
vn 0.3248 -0.3532 0.8773
vn 0.6310 -0.6863 0.3619
vn 0.6768 -0.7362 -0.0000
vn -0.7361 -0.6768 -0.0000
vn -0.0730 0.0794 0.9942
vn 0.7361 0.6768 -0.0000
vn -0.3248 0.3532 0.8773
vn -0.6310 0.6863 0.3619
vn 0.0730 -0.0794 -0.9942
vn 0.3248 -0.3532 -0.8773
vn -0.0005 0.0005 1.0000
vn 0.6309 -0.6863 -0.3619
vn -0.0730 0.0794 -0.9942
vn -0.3248 0.3532 -0.8773
vn -0.6310 0.6863 -0.3619
vn 0.0005 -0.0005 -1.0000
vn 0.4991 -0.8665 -0.0000
vn -0.8665 -0.4991 -0.0000
vn 0.0935 0.0538 0.9942
vn -0.4991 0.8665 -0.0000
vn 0.4158 0.2395 0.8773
vn 0.8078 0.4653 0.3619
vn 0.8665 0.4991 -0.0000
vn 0.4991 -0.8666 -0.0000
vn -0.0935 -0.0538 0.9942
vn -0.4158 -0.2395 0.8773
vn -0.8078 -0.4653 0.3619
vn 0.0935 0.0538 -0.9942
vn 0.4158 0.2395 -0.8773
vn -0.0006 -0.0004 1.0000
vn 0.8078 0.4653 -0.3619
vn -0.0935 -0.0538 -0.9942
vn -0.4158 -0.2395 -0.8773
vn -0.8078 -0.4653 -0.3619
vn 0.0006 0.0004 -1.0000
vt 0.625000 0.500000
vt 0.875000 0.500000
vt 0.875000 0.750000
vt 0.625000 0.750000
vt 0.375000 0.750000
vt 0.625000 1.000000
vt 0.375000 1.000000
vt 0.375000 0.000000
vt 0.625000 0.000000
vt 0.625000 0.250000
vt 0.375000 0.250000
vt 0.375000 0.500000
vt 0.125000 0.500000
vt 0.125000 0.750000
s 0
usemtl Material
f 1/1/1 10/2/1 2/3/1 5/4/1
f 14/5/2 5/4/2 2/6/2 12/7/2
f 12/8/3 2/9/3 10/10/3 11/11/3
f 1/1/1 5/4/1 3/1/1
f 11/11/4 10/10/4 1/1/4 13/12/4
f 3/1/1 5/4/1 6/1/1
f 13/12/5 1/1/5 3/1/5 4/12/5
f 14/5/6 13/12/6 4/12/6
f 4/12/7 3/1/7 6/1/7 7/12/7
f 14/5/6 4/12/6 7/12/6
f 14/5/6 9/12/6 28/12/6 25/5/6
f 6/1/1 5/4/1 8/1/1
f 7/12/8 6/1/8 8/1/8 9/12/8
f 14/5/6 7/12/6 9/12/6
f 14/8/9 13/11/9 1/10/9 5/9/9
f 13/13/6 14/14/6 12/5/6 11/12/6
f 10/1/1 15/1/1 2/4/1
f 15/1/1 17/1/1 2/4/1
f 11/12/10 16/12/10 15/1/10 10/1/10
f 12/5/6 16/12/6 11/12/6
f 16/12/11 18/12/11 17/1/11 15/1/11
f 12/5/6 18/12/6 16/12/6
f 17/1/1 19/1/1 2/4/1
f 18/12/12 20/12/12 19/1/12 17/1/12
f 12/5/6 20/12/6 18/12/6
f 21/1/6 30/2/6 22/3/6 25/4/6
f 34/5/4 25/4/4 22/6/4 32/7/4
f 32/8/3 22/9/3 30/10/3 31/11/3
f 21/1/6 25/4/6 23/1/6
f 31/11/2 30/10/2 21/1/2 33/12/2
f 23/1/6 25/4/6 26/1/6
f 33/12/13 21/1/13 23/1/13 24/12/13
f 34/5/1 33/12/1 24/12/1
f 24/12/14 23/1/14 26/1/14 27/12/14
f 34/5/1 24/12/1 27/12/1
f 29/12/15 28/1/15 25/4/15 34/5/15
f 26/1/6 25/4/6 28/1/6
f 27/12/16 26/1/16 28/1/16 29/12/16
f 34/5/1 27/12/1 29/12/1
f 34/8/9 33/11/9 21/10/9 25/9/9
f 33/13/1 34/14/1 32/5/1 31/12/1
f 30/1/6 35/1/6 22/4/6
f 35/1/6 37/1/6 22/4/6
f 31/12/17 36/12/17 35/1/17 30/1/17
f 32/5/1 36/12/1 31/12/1
f 36/12/18 38/12/18 37/1/18 35/1/18
f 32/5/1 38/12/1 36/12/1
f 40/12/1 32/5/1 2/5/1 19/12/1
f 37/1/6 39/1/6 22/4/6
f 38/12/19 40/12/19 39/1/19 37/1/19
f 32/5/1 40/12/1 38/12/1
f 20/12/20 12/5/20 2/4/20 19/1/20
f 9/12/9 8/1/9 29/1/9 28/12/9
f 5/4/3 14/5/3 25/5/3 34/4/3
f 8/1/1 5/4/1 34/4/1 29/1/1
f 22/4/6 39/1/6 20/1/6 12/4/6
f 32/8/9 22/9/9 12/9/9 2/8/9
f 39/1/3 40/12/3 19/12/3 20/1/3
f 41/1/21 50/2/21 42/3/21 45/4/21
f 54/5/2 45/4/2 42/6/2 52/7/2
f 52/8/22 42/9/22 50/10/22 51/11/22
f 41/1/21 45/4/21 43/1/21
f 51/11/4 50/10/4 41/1/4 53/12/4
f 43/1/21 45/4/21 46/1/21
f 53/12/23 41/1/23 43/1/23 44/12/23
f 54/5/24 53/12/24 44/12/24
f 44/12/25 43/1/25 46/1/25 47/12/25
f 54/5/24 44/12/24 47/12/24
f 54/5/24 49/12/24 68/12/24 65/5/24
f 46/1/21 45/4/21 48/1/21
f 47/12/26 46/1/26 48/1/26 49/12/26
f 54/5/24 47/12/24 49/12/24
f 54/8/27 53/11/27 41/10/27 45/9/27
f 53/13/24 54/14/24 52/5/24 51/12/24
f 50/1/28 55/1/28 42/4/28
f 55/1/21 57/1/21 42/4/21
f 51/12/29 56/12/29 55/1/29 50/1/29
f 52/5/30 56/12/30 51/12/30
f 56/12/31 58/12/31 57/1/31 55/1/31
f 52/5/24 58/12/24 56/12/24
f 57/1/21 59/1/21 42/4/21
f 58/12/32 60/12/32 59/1/32 57/1/32
f 52/5/24 60/12/24 58/12/24
f 61/1/24 70/2/24 62/3/24 65/4/24
f 74/5/4 65/4/4 62/6/4 72/7/4
f 72/8/22 62/9/22 70/10/22 71/11/22
f 61/1/24 65/4/24 63/1/24
f 71/11/2 70/10/2 61/1/2 73/12/2
f 63/1/24 65/4/24 66/1/24
f 73/12/33 61/1/33 63/1/33 64/12/33
f 74/5/21 73/12/21 64/12/21
f 64/12/34 63/1/34 66/1/34 67/12/34
f 74/5/21 64/12/21 67/12/21
f 69/12/35 68/1/35 65/4/35 74/5/35
f 66/1/24 65/4/24 68/1/24
f 67/12/36 66/1/36 68/1/36 69/12/36
f 74/5/21 67/12/21 69/12/21
f 74/8/27 73/11/27 61/10/27 65/9/27
f 73/13/21 74/14/21 72/5/21 71/12/21
f 70/1/24 75/1/24 62/4/24
f 75/1/24 77/1/24 62/4/24
f 71/12/37 76/12/37 75/1/37 70/1/37
f 72/5/28 76/12/28 71/12/28
f 76/12/38 78/12/38 77/1/38 75/1/38
f 72/5/21 78/12/21 76/12/21
f 80/12/21 72/5/21 42/5/21 59/12/21
f 77/1/24 79/1/24 62/4/24
f 78/12/39 80/12/39 79/1/39 77/1/39
f 72/5/21 80/12/21 78/12/21
f 60/12/40 52/5/40 42/4/40 59/1/40
f 49/12/27 48/1/27 69/1/27 68/12/27
f 45/4/22 54/5/22 65/5/22 74/4/22
f 48/1/21 45/4/21 74/4/21 69/1/21
f 62/4/24 79/1/24 60/1/24 52/4/24
f 72/8/27 62/9/27 52/9/27 42/8/27
f 79/1/22 80/12/22 59/12/22 60/1/22
f 81/1/41 90/2/41 82/3/41 85/4/41
f 94/5/2 85/4/2 82/6/2 92/7/2
f 92/8/42 82/9/42 90/10/42 91/11/42
f 81/1/41 85/4/41 83/1/41
f 91/11/4 90/10/4 81/1/4 93/12/4
f 83/1/41 85/4/41 86/1/41
f 93/12/43 81/1/43 83/1/43 84/12/43
f 94/5/44 93/12/44 84/12/44
f 84/12/45 83/1/45 86/1/45 87/12/45
f 94/5/44 84/12/44 87/12/44
f 94/5/44 89/12/44 108/12/44 105/5/44
f 86/1/41 85/4/41 88/1/41
f 87/12/46 86/1/46 88/1/46 89/12/46
f 94/5/44 87/12/44 89/12/44
f 94/8/47 93/11/47 81/10/47 85/9/47
f 93/13/44 94/14/44 92/5/44 91/12/44
f 90/1/48 95/1/48 82/4/48
f 95/1/41 97/1/41 82/4/41
f 91/12/49 96/12/49 95/1/49 90/1/49
f 92/5/44 96/12/44 91/12/44
f 96/12/50 98/12/50 97/1/50 95/1/50
f 92/5/44 98/12/44 96/12/44
f 97/1/41 99/1/41 82/4/41
f 98/12/51 100/12/51 99/1/51 97/1/51
f 92/5/44 100/12/44 98/12/44
f 101/1/44 110/2/44 102/3/44 105/4/44
f 114/5/4 105/4/4 102/6/4 112/7/4
f 112/8/42 102/9/42 110/10/42 111/11/42
f 101/1/44 105/4/44 103/1/44
f 111/11/2 110/10/2 101/1/2 113/12/2
f 103/1/44 105/4/44 106/1/44
f 113/12/52 101/1/52 103/1/52 104/12/52
f 114/5/41 113/12/41 104/12/41
f 104/12/53 103/1/53 106/1/53 107/12/53
f 114/5/41 104/12/41 107/12/41
f 109/12/54 108/1/54 105/4/54 114/5/54
f 106/1/44 105/4/44 108/1/44
f 107/12/55 106/1/55 108/1/55 109/12/55
f 114/5/41 107/12/41 109/12/41
f 114/8/47 113/11/47 101/10/47 105/9/47
f 113/13/41 114/14/41 112/5/41 111/12/41
f 110/1/44 115/1/44 102/4/44
f 115/1/44 117/1/44 102/4/44
f 111/12/56 116/12/56 115/1/56 110/1/56
f 112/5/41 116/12/41 111/12/41
f 116/12/57 118/12/57 117/1/57 115/1/57
f 112/5/41 118/12/41 116/12/41
f 120/12/41 112/5/41 82/5/41 99/12/41
f 117/1/44 119/1/44 102/4/44
f 118/12/58 120/12/58 119/1/58 117/1/58
f 112/5/41 120/12/41 118/12/41
f 100/12/59 92/5/59 82/4/59 99/1/59
f 89/12/47 88/1/47 109/1/47 108/12/47
f 85/4/42 94/5/42 105/5/42 114/4/42
f 88/1/41 85/4/41 114/4/41 109/1/41
f 102/4/44 119/1/44 100/1/44 92/4/44
f 112/8/47 102/9/47 92/9/47 82/8/47
f 119/1/42 120/12/42 99/12/42 100/1/42
